<svg xmlns="http://www.w3.org/2000/svg" xmlns:xlink="http://www.w3.org/1999/xlink" viewBox="0 0 750 250"><defs><style>.cls-1{isolation:isolate;}.cls-2{font-size:93.87px;fill:#ffcc01;stroke:#000;stroke-miterlimit:10;stroke-width:3px;font-family:MarkerFelt-Wide, Marker Felt;letter-spacing:-0.1em;}.cls-3{letter-spacing:-0.08em;}.cls-4{letter-spacing:-0.07em;}.cls-5{letter-spacing:-0.08em;}.cls-6{letter-spacing:-0.07em;}.cls-7{letter-spacing:-0.06em;}.cls-8{letter-spacing:-0.05em;}.cls-9{letter-spacing:-0.07em;}.cls-10{font-family:BadaBoomBB, BadaBoom BB;letter-spacing:-0.1em;}.cls-11{mix-blend-mode:multiply;fill:url(#_ÂÁ_Ï_ÌÌ_È_ËÂÌÚ_17);}.cls-12{fill:#fe9a11;}.cls-13{fill:#f9dc30;}.cls-14{fill:#231f20;}.cls-15{fill:#fdfdfd;}.cls-16{fill:#f59415;}.cls-17{fill:#f93e26;}.cls-18{fill:#feed00;}</style><radialGradient id="_ÂÁ_Ï_ÌÌ_È_ËÂÌÚ_17" cx="-95.08" cy="1609.38" r="74.22" gradientTransform="translate(777.43 -36.52) scale(1.63 0.16)" gradientUnits="userSpaceOnUse"><stop offset="0" stop-color="#9e9e9e"/><stop offset="0.17" stop-color="#b4b4b4"/><stop offset="0.54" stop-color="#ddd"/><stop offset="0.83" stop-color="#f6f6f6"/><stop offset="1" stop-color="#fff"/></radialGradient></defs><title>BM-Title</title><g class="cls-1"><g id="Capa_9" data-name="Capa 9"><text class="cls-2" transform="translate(34.63 228.36) rotate(-15.51)">¡<tspan class="cls-3" x="11.17" y="0">B</tspan><tspan class="cls-4" x="55.19" y="0">U</tspan><tspan class="cls-5" x="102.04" y="0">S</tspan><tspan x="142.78" y="0">C</tspan><tspan class="cls-6" x="183.99" y="0">A</tspan><tspan class="cls-7" x="239.84" y="0">M</tspan><tspan class="cls-8" x="322.92" y="0">I</tspan><tspan class="cls-9" x="340.66" y="0">N</tspan><tspan x="391.91" y="0">AS</tspan><tspan class="cls-10" x="482.78" y="0">!</tspan></text><g id="_2" data-name="2"><ellipse class="cls-11" cx="622.59" cy="224.94" rx="120.85" ry="12.06"/><g id="_2-2" data-name="2"><path class="cls-12" d="M742.48,147.44q-21,2.37-42,4.79l-3,.35-.18,1.93q-1.38,14.61-3,29.2Q680.5,178.28,666.59,173l-3.34-1.26-2.37,2.85c-11.82,16.44-23.64,32.81-35,49.16q-9-19.66-18.42-39.27l-2.29-3.28-4.59,3.72q-15.36,12.47-30.44,25-2.43-16.22-4.63-32.44l-.24-1.73-2.79.33q-30,3.44-60,6.93,12.12-12.14,24.49-24.14l3.27-3.18-4.32-1.77c-23.17-9.74-46.08-19.73-68.29-30.27,32.56,4.2,65.58,7.76,98.82,11.06l6.28.05-1.59-3.54c-6.27-13.88-12.38-27.81-18.2-41.81,17.43,9.88,35.37,19.52,53.52,29.07l6.49,3.4,4.19-5.68c6.56-8.88,13-17.75,19.39-26.64q7.37,13.52,14.71,27.06c.51.94,1,1.88,1.52,2.82l3.54-2.89c15.36-12.57,30.48-25.22,45.14-38-3.27,14.66-7,29.3-10.93,43.92-.39,1.4-.77,2.8-1.15,4.21l6.3-1.94q27.49-8.52,54.86-17.24-17.57,14.52-35.6,28.76l-4.19,3.3,5.05.94Q724.15,143.86,742.48,147.44Z"/><path class="cls-13" d="M612.92,182.47l-6.06-8.72-10.57,8.57q-10.9,8.84-21.66,17.7-2.1-14.57-4-29.15l-8.46,1-47,5.39Q526.87,165.58,538.8,154q-4.8-2-9.57-3.91-21.53-9.08-42.62-18.49c22.74,2.63,45.66,5,68.66,7.28L571,139q-2.17-4.77-4.32-9.54-6.36-14-12.48-28.11c12.6,7,25.41,13.79,38.31,20.59q6,3.14,12,6.26,3.87-5.21,7.71-10.42,6.67-9,13.24-18.11,5.07,9.39,10.15,18.79,2.39,4.44,4.75,8.88c14.14-11.48,28.14-23,41.83-34.64-3.31,13.6-6.93,27.18-10.74,40.76l15.94-4.88q15.87-4.91,31.72-9.86-9.18,7.42-18.46,14.79-5.4,4.28-10.82,8.53l13.79,2.56,9.84,1.85q-10.82,1.24-21.62,2.52-1.22,13.82-2.71,27.63-11.28-4.4-22.68-8.71l-5-1.88-5.68,6.83c-9.61,13.39-19.21,26.74-28.6,40.08Q620.15,197.68,612.92,182.47Z"/><path class="cls-14" d="M714.69,136q17.73,5.78,35.31,11.78L742.73,149c-.09-.5-.17-1-.25-1.52q-18.33-3.58-36.77-7l-5.05-.94,4.19-3.3q18-14.25,35.6-28.76c-.17-.49-.33-1-.5-1.49l3.54-.87,2.44-.59L744.44,106Q729.83,121.13,714.69,136Z"/><path class="cls-14" d="M699.28,184.45l-.72,5.11-6.16-2.05Q678.78,183,665,178.68c-12.28,15.39-24.53,30.72-36.4,46l-2.74-1c11.41-16.35,23.23-32.72,35-49.16l2.37-2.85,3.34,1.26q13.89,5.31,27.62,10.73,1.65-14.6,3-29.2l.18-1.93,3-.35q21-2.41,42-4.79c.08.51.16,1,.25,1.52q-19.85,3.3-39.66,6.64Q701.33,170,699.28,184.45Z"/><path class="cls-14" d="M691.37,78.5l-1.47-1,2.27-1.8,2-1.55c0,.62-.1,1.23-.16,1.85-1.1,14-2.58,28.06-4.33,42.09q25.2-6,50.32-12.16c.17.5.33,1,.5,1.49q-27.36,8.73-54.86,17.24l-6.3,1.94c.38-1.41.76-2.81,1.15-4.21C684.41,107.8,688.1,93.16,691.37,78.5Z"/><path class="cls-14" d="M630.71,86.18q7.37,12.81,14.74,25.64c15.09-11.34,30-22.75,44.45-34.29l1.47,1c-14.66,12.79-29.78,25.44-45.14,38l-3.54,2.89c-.5-.94-1-1.88-1.52-2.82Q633.84,103,626.46,89.52c-6.34,8.89-12.83,17.76-19.39,26.64l-4.19,5.68-6.49-3.4c-18.15-9.55-36.09-19.19-53.52-29.07l1.52-1.57c18.48,8.77,37.44,17.29,56.63,25.72q11.22-13.44,22.12-26.89,2.29-2.84,4.57-5.68Z"/><path class="cls-14" d="M627.77,225.73c-.89,1-1.79,2-2.68,3l-1.85-2.33q-10-18.76-20.43-37.44c-11.11,9.27-22.13,18.54-32.95,27.86-1.93,1.66-3.85,3.31-5.77,5l-.72-5.18q-2.48-18-4.62-36.09l-56.27,5.15c0-.89-.05-1.77-.07-2.66q30-3.48,60-6.93l2.79-.33.24,1.73q2.2,16.23,4.63,32.44,15-12.52,30.44-25l4.59-3.72,2.29,3.28q9.33,19.62,18.42,39.27l2.74,1Z"/><path class="cls-14" d="M542.87,89.37c5.82,14,11.93,27.93,18.2,41.81l1.59,3.54-6.28-.05c-33.24-3.3-66.26-6.86-98.82-11.06.13-.42.27-.84.41-1.26,31.16,3,62.67,5.45,94.39,7.65q-6.72-21.27-12.86-42.68c-.21-.72-.42-1.43-.62-2.15l2.57,1.23,2.94,1.4Z"/><path class="cls-14" d="M502.41,183c0,.89,0,1.77.07,2.66l-7.6.7c7.8-9.45,15.75-18.86,23.76-28.23-22.55-11.21-44.79-22.7-66.23-34.79L450.17,122l3.49,0,4.31.41c-.14.42-.28.84-.41,1.26,22.21,10.54,45.12,20.53,68.29,30.27l4.32,1.77-3.27,3.18Q514.55,170.85,502.41,183Z"/><path class="cls-14" d="M666.5,122.47A45,45,0,1,1,614.89,85.3,45,45,0,0,1,666.5,122.47Z"/><path class="cls-14" d="M626.3,66a78.74,78.74,0,0,0-26.62,4.2l2.53,15.56a63.17,63.17,0,0,1,26.63-4.17Z"/><path class="cls-15" d="M612.24,164.85c-2.3-.83-19.59-9.55-22.48-31.66-2.06-17.25,6.81-29.36,9.29-31.88-11.08,5.15-18,20.2-15.68,34.74C585.73,152.16,598.58,164.21,612.24,164.85Z"/><path class="cls-15" d="M606.15,82.28a9.6,9.6,0,0,0-2.26.76L602,71.61a12.22,12.22,0,0,1,2.26-.74C604.85,74.32,605.58,78.83,606.15,82.28Z"/><path class="cls-14" d="M632,18.59c-.47-.65-1.68-.14-1.46.66,1.79,6.46,2.51,12.86-.27,19.18-2.9,6.59-9,9.93-13.77,15-3.2,3.4-5.65,8-5.35,12.43a24.7,24.7,0,0,1,3.23-.31c2-10.23,15.33-14.63,19.57-24.42C637.15,33.73,636.73,25.13,632,18.59Z"/><g id="_8" data-name="8"><path class="cls-16" d="M650.6,33.36a2.71,2.71,0,0,0,.06.38c0,.22.31.42.67.59a22.24,22.24,0,0,0,2.83.91c-1.87.47-4,.5-4.85,2-.38.7.56,1.31,1.41,2.13a22.54,22.54,0,0,0-3.76,0,4.67,4.67,0,0,0-3.25,1.34c-.67.78-.14,2.23.42,3.51-.08-.17-1.15-.41-1.39-.5a5.91,5.91,0,0,0-4.49,0c-1.78.8-1.53,1.79-1.56,2.9-1.22-1.11-2.66-2.69-5.36-2.19a5.49,5.49,0,0,0-2.11.86c-.26.19-1.49,1-1.49,1.18,0-.82.14-2.47-.51-3-1.47-1.14-4.15-.92-6.3-.42-.61.15-1.2.35-1.82.47,3.53-2.28,4.91-3.85,4.47-4.58a1.88,1.88,0,0,0-.18-.24,4.81,4.81,0,0,0-3.14-.87,15.45,15.45,0,0,0-3.63.19,3.78,3.78,0,0,0-.88.28c.53-.24,1-.49,1.55-.75,2.24-1.15,4.11-2.41,4-3.51-.08-.91-1.85-1.27-2.43-2,0,0,2.19,0,2.41,0a2.89,2.89,0,0,0,1.81-.89c.72-.82.57-2.27-.91-4,2.65,1.56,6,3.37,8.5,3.16a5.24,5.24,0,0,0,3-1.13c2-1.82,2.22-3.71,2.09-6.13.75,1.15,1.56,2.82,3.05,3.58a6.75,6.75,0,0,0,5.32.14,19.45,19.45,0,0,0,4.74-3.44l.13-.13-.06.19c-.91,2.6-1.89,5-.76,5.86.79.65,2.07.88,3.9.72.39,0,1.61-.34,2.5-.55l.78-.18-.52.24c-.61.27-1.18.54-1.69.81C651.55,31.2,650.51,32.08,650.6,33.36Z"/><path class="cls-13" d="M635.79,44.36a6.19,6.19,0,0,0-4.49-.86l-.16,0a7.51,7.51,0,0,0-2.11.72,2.14,2.14,0,0,0-.74-1.4,7.12,7.12,0,0,0-4.94-1.07c1.49-1.36,2-2.42,1.5-3.23a2.16,2.16,0,0,0-.29-.37c-.73-.77-2.09-1.19-4-1.25,1.26-.88,2.25-1.91,2.15-3a1.56,1.56,0,0,0-.54-1,4.43,4.43,0,0,0,2.1-1.25,2.52,2.52,0,0,0,.65-1.73,12.05,12.05,0,0,0,5.81,1.39c.24,0,.49-.06.74-.1a6.4,6.4,0,0,0,3.32-1.46,7.06,7.06,0,0,0,2.07-3.07,5.24,5.24,0,0,0,1.15.8,8.55,8.55,0,0,0,5,.66,6.89,6.89,0,0,0,1.82-.54,13.31,13.31,0,0,0,1.74-1c-.35,1.42-.33,2.6.59,3.34a5.54,5.54,0,0,0,3.18,1,3.05,3.05,0,0,0-1.09,2.48,2.31,2.31,0,0,0,.07.49c.08.43.45.81,1.13,1.14A4.35,4.35,0,0,0,648,37a1.36,1.36,0,0,0,0,1.34c-.4,0-.78,0-1.07.06s-.48,0-.71.09a6,6,0,0,0-3.65,1.77,2.55,2.55,0,0,0-.49,2.2,7.58,7.58,0,0,0-2.72-.06,7.16,7.16,0,0,0-1.76.53A4.14,4.14,0,0,0,635.79,44.36Z"/><path class="cls-14" d="M657.05,41.77C646.77,39,641.78,39.46,647.31,47c0,0-13.28-8.84-7.7,5.24-4.65-4.92-5.43-11.72-15.42-.4,2.7-6.93,4.46-9.64-11.56-5.61,10.51-6.42,11.47-7.85,3.17-6.9l-.06-.94a11.13,11.13,0,0,1,4.51-.47c1.34,0,2.83.27,3.33,1.11s-1,2.3-4.48,4.58c.63-.12,1.21-.32,1.83-.47,2.14-.5,4.82-.73,6.29.42.65.5.51,2.15.51,3,0-.2,1.23-1,1.49-1.18a5.34,5.34,0,0,1,2.11-.86c2.7-.5,4.13,1.08,5.36,2.19,0-1.11-.22-2.1,1.56-2.91a5.93,5.93,0,0,1,4.48,0c.25.09,1.32.33,1.4.5-.56-1.28-1.09-2.72-.41-3.51A4.61,4.61,0,0,1,647,39.4a22.54,22.54,0,0,1,3.76,0c-.85-.82-1.79-1.43-1.41-2.12.85-1.56,3-1.59,4.84-2.06l.24.79C650.21,37,651.26,39,657.05,41.77Z"/><path class="cls-14" d="M634.62,17.6c3.51,8.52,7.45,13.36,17.94.06C647.62,29,647,31,661.82,26.85c-11.05,5.3-12.14,7.75-.28,8.43a38,38,0,0,0-7.15.75l-.24-.79c-1.21-.38-3.34-.82-3.49-1.5-.46-2,1.7-3.09,4.74-4.45-.66.12-2.75.68-3.28.73-1.83.16-3.11-.07-3.91-.72-1.14-.92-.09-3.37.84-6.05a20.29,20.29,0,0,1-4.88,3.57,6.79,6.79,0,0,1-5.32-.14c-1.5-.76-2.3-2.43-3.05-3.59.13,2.43-.12,4.32-2.1,6.13a5.12,5.12,0,0,1-3,1.14c-2.47.21-5.85-1.61-8.5-3.16l.71-.65C628.33,29.61,635.38,31.18,634.62,17.6Z"/><path class="cls-14" d="M622.89,26.55l-.71.65c1.48,1.75,1.63,3.2.91,4a2.9,2.9,0,0,1-1.82.89c-.21,0-2.38.08-2.4,0,.58.69,2.35,1.05,2.43,2,.12,1.34-2.71,2.92-5.56,4.25l.06.94c-2.25.26-5.18.69-8.77,1.25,11.67-4.87,16.64-6.82,3-9.91,14.62,1.42,12.23-.5,6.9-8.25A68.37,68.37,0,0,0,622.89,26.55Z"/></g><path class="cls-17" d="M670.65,173.38c.67,4.22,1.71,8.5,2.62,12.7q6.48.54,12.94,1.47a87.74,87.74,0,0,0-11.58,5.68A36.17,36.17,0,0,1,675,203.4c-1.78-1.54-4.27-3.77-7.09-6.21-3.31,2-6.2,3.71-8.21,4.69a28,28,0,0,1,2.46-9.51,85.8,85.8,0,0,0-9.9-7.08q6.53-.06,13,.25A118.91,118.91,0,0,0,670.65,173.38Z"/><path class="cls-14" d="M659.38,202.57l-.12-.06a.75.75,0,0,1-.34-.65,27.26,27.26,0,0,1,2.29-9.26,81.07,81.07,0,0,0-9.36-6.66.76.76,0,0,1-.35-.84.77.77,0,0,1,.72-.56c4.18,0,8.41,0,12.57.23l.25-.5A109.27,109.27,0,0,0,670,173.13a.74.74,0,0,1,1.44.13c.51,3.25,1.26,6.59,2,9.82l.51,2.3c4.15.36,8.33.84,12.44,1.43a.73.73,0,0,1,.63.66.74.74,0,0,1-.48.78,81.59,81.59,0,0,0-11,5.38,35.91,35.91,0,0,1,.25,9.87.74.74,0,0,1-1.23.46c-.78-.67-1.7-1.48-2.72-2.38-1.19-1.05-2.53-2.23-4-3.47-3.14,1.87-5.86,3.49-7.8,4.44A.76.76,0,0,1,659.38,202.57ZM654.82,186c2.27,1.49,4.83,3.39,7.76,5.76a.75.75,0,0,1,.23.86,30.41,30.41,0,0,0-2.31,7.95c1.78-.95,4-2.3,6.59-3.82l.4-.23a.74.74,0,0,1,.87.07c1.59,1.38,3.07,2.69,4.38,3.84l1.62,1.43a38.53,38.53,0,0,0-.46-8.55.74.74,0,0,1,.37-.76c3.56-2,6.52-3.54,9.08-4.67-3.37-.44-6.77-.8-10.14-1.09a.75.75,0,0,1-.67-.58l-.63-2.84c-.53-2.36-1.07-4.79-1.52-7.2-1.19,2.92-2.62,5.86-4,8.72l-.46,1a.74.74,0,0,1-.71.42C661.78,186.12,658.29,186,654.82,186Z"/><polygon class="cls-14" points="652.61 174.89 659.62 180.59 653.26 172.79 652.61 174.89"/><polygon class="cls-14" points="655.68 172.59 660.68 180.5 657.1 172.47 655.68 172.59"/><polygon class="cls-14" points="690.73 198.1 680.52 195.69 690.68 200.45 690.73 198.1"/><polygon class="cls-14" points="687.88 201.75 679.3 196.26 686.24 202.51 687.88 201.75"/><polygon class="cls-14" points="677.3 172.07 675.43 183.39 679.66 169.98 677.3 172.07"/><polygon class="cls-14" points="688.13 177.02 676.68 184.17 686.69 179.79 688.13 177.02"/><polygon class="cls-14" points="648.48 194.72 647.57 196.07 658.72 193.87 648.48 194.72"/><polygon class="cls-14" points="657.67 195.22 648.9 199.77 650.75 200.34 657.67 195.22"/><polygon class="cls-14" points="662.51 209.28 663.05 210.72 667.48 200.75 662.51 209.28"/><polygon class="cls-14" points="667.95 202.32 666.63 211.68 668.09 210.54 667.95 202.32"/><path class="cls-17" d="M566.59,61.36c2.5,3.15,5.33,6.18,8,9.19q5.56-2.55,11.28-4.78a80.73,80.73,0,0,0-6.85,10A34.29,34.29,0,0,1,584,84c-2.16-.44-5.23-1.12-8.67-1.81-1.8,3.14-3.36,5.9-4.55,7.63a26.29,26.29,0,0,1-2.39-8.92A80.76,80.76,0,0,0,557,79.63q5.32-3.06,10.78-5.81A109.13,109.13,0,0,0,566.59,61.36Z"/><path class="cls-14" d="M570.85,90.47h-.12a.71.71,0,0,1-.58-.37,25.65,25.65,0,0,1-2.4-8.64A76.07,76.07,0,0,0,557,80.33a.71.71,0,0,1-.67-.52.73.73,0,0,1,.33-.79c3.41-2,6.91-3.86,10.4-5.62l0-.53a101.93,101.93,0,0,0-1.13-11.39.7.7,0,0,1,.4-.76.72.72,0,0,1,.85.2c1.92,2.43,4.07,4.82,6.15,7.12l1.48,1.65c3.56-1.62,7.21-3.16,10.84-4.57a.7.7,0,0,1,.83.24.69.69,0,0,1,0,.86,77,77,0,0,0-6.53,9.51,33.73,33.73,0,0,1,4.76,8,.68.68,0,0,1-.11.71.73.73,0,0,1-.68.24l-3.32-.7c-1.47-.31-3.11-.66-4.85-1-1.71,3-3.18,5.56-4.33,7.24A.77.77,0,0,1,570.85,90.47ZM559.48,79c2.55.17,5.52.55,9,1.13a.71.71,0,0,1,.58.6,28.45,28.45,0,0,0,1.79,7.58c1-1.6,2.24-3.75,3.63-6.17l.21-.38a.71.71,0,0,1,.75-.34c1.94.39,3.75.77,5.36,1.12l2,.42a35.68,35.68,0,0,0-4.34-6.78.73.73,0,0,1,0-.8,95.16,95.16,0,0,1,5.28-8c-3,1.2-5.92,2.47-8.81,3.8a.72.72,0,0,1-.82-.17c-.6-.68-1.21-1.36-1.82-2-1.53-1.7-3.09-3.43-4.58-5.2.38,2.94.57,6,.75,9l.06,1a.7.7,0,0,1-.38.68C565.22,75.9,562.33,77.43,559.48,79Z"/><polygon class="cls-14" points="552.52 70.94 560.9 72.36 552.08 68.92 552.52 70.94"/><polygon class="cls-14" points="553.98 67.63 561.72 71.8 555.08 66.88 553.98 67.63"/><polygon class="cls-14" points="594.46 72.32 584.98 75.07 595.5 74.27 594.46 72.32"/><polygon class="cls-14" points="593.8 76.63 584.24 76.09 592.81 78 593.8 76.63"/><polygon class="cls-14" points="571.43 57.22 575.13 67.36 572.4 54.42 571.43 57.22"/><polygon class="cls-14" points="582.59 56.27 576.52 67.41 582.69 59.2 582.59 56.27"/><polygon class="cls-14" points="558.31 89.08 558.18 90.6 566.3 83.64 558.31 89.08"/><polygon class="cls-14" points="566.06 85.24 560.98 93.02 562.76 92.63 566.06 85.24"/><polygon class="cls-14" points="576.51 94.51 577.62 95.44 576.65 85.24 576.51 94.51"/><polygon class="cls-14" points="577.75 86.3 581 94.57 581.67 92.97 577.75 86.3"/><path class="cls-18" d="M642.78,50.75c-1,.7-2.45,2.18-1.84,3.27h-.16a2.23,2.23,0,0,0-2.29,2l0,.17-.64-.5c-.64-.49-1.73.15-2.27.74L635,57l-.11-.39c-.29-1-1.44-2.08-2.45-1.88l-.4.08.27-.76c.27-.76.27-1.67-.46-2l-.74-.34.58-.4c.72-.48.38-2.16-.05-2.92l-.34-.6.84,0c.78,0,2,.17,2.11-.61l.1-.83.6.47a1.59,1.59,0,0,0,2.15-.18l.52-.57.39,1.38a.88.88,0,0,0,1,.61L641,47l-.45,1.53C639.92,50.83,642.78,50.75,642.78,50.75Z"/><path class="cls-14" d="M634.76,58.09l-.38-1.31c-.21-.73-1.06-1.57-1.75-1.51l-1.41.28.6-1.67c.14-.39.26-1.12-.18-1.33L630,51.82l1.37-.93c.32-.22.2-1.48-.22-2.21l-.81-1.44,2.06.07a7.85,7.85,0,0,0,.84,0s.44,0,.46-.15l.2-1.78,1.36,1a1.08,1.08,0,0,0,1.42-.11l1.17-1.27.66,2.29a.32.32,0,0,0,.34.23l3-1.69-.83,2.79a1.11,1.11,0,0,0,.09,1,2.28,2.28,0,0,0,1.61.54l1.84-.05-1.52,1c-.91.62-2.07,1.86-1.68,2.56l.47.84-1.12,0a1.67,1.67,0,0,0-1.74,1.5l-.12,1.12-1.4-1.09a.39.39,0,0,0-.27-.06,2.33,2.33,0,0,0-1.27.75Zm-1.91-3.89a3.15,3.15,0,0,1,2.37,1.8,3.32,3.32,0,0,1,1.92-1,1.4,1.4,0,0,1,1,.27,2.8,2.8,0,0,1,2.14-1.72,3.54,3.54,0,0,1,1.24-2.42,2.35,2.35,0,0,1-1.2-.77,2.12,2.12,0,0,1-.28-1.95l.08-.27-1.14.54a1.41,1.41,0,0,1-1.46-1l-.14-.47a2.17,2.17,0,0,1-2.59.22c-.09.43-.41.91-1.42,1a8,8,0,0,1-1,0h-.14c.42.92.69,2.5,0,3.24A2,2,0,0,1,632.85,54.2Z"/><path class="cls-18" d="M615.64,54.3c-1,.7-2.45,2.18-1.84,3.27v0h-.17a2.23,2.23,0,0,0-2.29,2l0,.17-.65-.5c-.63-.49-1.72.16-2.26.74l-.55.6-.11-.39c-.29-1-1.45-2.08-2.46-1.87l-.4.08.28-.77c.27-.75.27-1.67-.46-2l-.74-.34.58-.39c.71-.49.37-2.17,0-2.92l-.34-.61.83,0c.79,0,2,.16,2.12-.62l.09-.83.61.47a1.59,1.59,0,0,0,2.15-.18l.51-.56.4,1.37a.88.88,0,0,0,1,.61l2-1.1-.45,1.52C612.77,54.38,615.64,54.3,615.64,54.3Z"/><path class="cls-14" d="M607.62,61.64l-.38-1.31c-.21-.72-1.06-1.56-1.75-1.51l-1.42.28.6-1.66c.15-.4.27-1.13-.17-1.33l-1.61-.74,1.37-.93c.32-.22.19-1.48-.22-2.21l-.81-1.44,2,.07a8,8,0,0,0,.85,0s.44,0,.45-.15l.21-1.78L608.15,50a1.08,1.08,0,0,0,1.42-.12l1.16-1.27.67,2.29a.33.33,0,0,0,.34.24l3-1.7-.83,2.8a1.08,1.08,0,0,0,.09,1,2.28,2.28,0,0,0,1.61.54l1.84,0-1.53,1c-.9.61-2.06,1.86-1.67,2.56l.47.83-1.12,0a1.68,1.68,0,0,0-1.74,1.5l-.12,1.13-1.41-1.09a.3.3,0,0,0-.26-.06,2.31,2.31,0,0,0-1.27.74Zm-1.91-3.89a3.19,3.19,0,0,1,2.37,1.8,3.28,3.28,0,0,1,1.92-1,1.36,1.36,0,0,1,1,.26,2.79,2.79,0,0,1,2.14-1.71,3.5,3.5,0,0,1,1.24-2.42,2.49,2.49,0,0,1-1.2-.77,2.14,2.14,0,0,1-.28-2l.08-.27-1.14.54a1.4,1.4,0,0,1-1.46-1l-.14-.46a2.17,2.17,0,0,1-2.59.21c-.09.43-.41.91-1.42,1a6.41,6.41,0,0,1-1,0h-.15c.43.92.69,2.51,0,3.25A2,2,0,0,1,605.71,57.75Z"/><path class="cls-14" d="M634.22,180.74c-1.88-.05-3.44-.12-4.76-.27a17.1,17.1,0,0,1,6.11-2.83c-9.06,2.7-11.65.25-9.46-8.94-.9,3.79-2,6.19-3.49,7.24a39.62,39.62,0,0,1-1.64-6.38,33.8,33.8,0,0,1-.65,7c-1.77-.16-4-1.55-6.69-4.13,3.41,3.22,4.92,5.7,4.47,7.71-1.62,1.19-4.19,1.84-8.31,2.66a48.45,48.45,0,0,1,5.6.38,23.39,23.39,0,0,1-4.77,1.91c9-2.7,11.64-.26,9.45,8.94a21.4,21.4,0,0,1,1.77-5.11c.41,1.35.78,3,1.18,5.06a32.53,32.53,0,0,1,.74-7.33c2.09-1.3,4.87,0,8.78,3.66-3.6-3.41-5.08-6-4.37-8.05A43.07,43.07,0,0,1,634.22,180.74Z"/><path class="cls-13" d="M648.23,13.55c1.4,2.79,3.07,5.54,4.64,8.26q4.64-1.06,9.33-1.85a63.72,63.72,0,0,0-6.79,6.52,26.91,26.91,0,0,1,2.48,7c-1.58-.68-3.81-1.68-6.31-2.75-1.87,2.1-3.5,3.95-4.67,5.08a20.21,20.21,0,0,1-.41-7.16,62.16,62.16,0,0,0-8.45-2.73c3-1,6.05-1.9,9.12-2.71A88.71,88.71,0,0,0,648.23,13.55Z"/><path class="cls-14" d="M646.86,36.37l-.1,0a.54.54,0,0,1-.38-.38,20.06,20.06,0,0,1-.46-6.95,58.93,58.93,0,0,0-8-2.56.54.54,0,0,1-.43-.5.55.55,0,0,1,.38-.55c2.9-1,5.86-1.84,8.8-2.63l.06-.41a80.23,80.23,0,0,0,.94-8.84.55.55,0,0,1,1-.23c1.08,2.15,2.34,4.31,3.55,6.39l.87,1.49c3-.67,6-1.26,9-1.76a.55.55,0,0,1,.43,1,60.26,60.26,0,0,0-6.48,6.19,26.2,26.2,0,0,1,2.37,6.81.55.55,0,0,1-.76.6l-2.42-1.06-3.52-1.54c-1.78,2-3.31,3.74-4.45,4.83A.53.53,0,0,1,646.86,36.37ZM640,25.87c1.91.53,4.11,1.28,6.68,2.28a.55.55,0,0,1,.35.55,21.91,21.91,0,0,0,.16,6.05c1-1.06,2.3-2.5,3.73-4.12l.23-.25a.52.52,0,0,1,.62-.14c1.41.6,2.74,1.18,3.9,1.69l1.45.64a28.44,28.44,0,0,0-2.22-5.85.53.53,0,0,1,.09-.61,73.63,73.63,0,0,1,5.28-5.26c-2.44.44-4.89.94-7.3,1.49a.54.54,0,0,1-.59-.26l-1.07-1.84c-.89-1.52-1.81-3.09-2.66-4.67-.18,2.3-.52,4.66-.85,7l-.11.76a.53.53,0,0,1-.4.45C644.88,24.39,642.44,25.1,640,25.87Z"/></g></g></g></g></svg>